<?xml version="1.0" encoding="UTF-8"?>
<svg xmlns="http://www.w3.org/2000/svg" xmlns:xlink="http://www.w3.org/1999/xlink" width="144pt" height="144pt" viewBox="0 0 144 144" version="1.1">
<g id="surface49">
<path style="fill:none;stroke-width:0.75;stroke-linecap:round;stroke-linejoin:round;stroke:rgb(0%,0%,0%);stroke-opacity:1;stroke-miterlimit:10;" d="M 28.800781 115.199219 L 31.277344 107.992188 L 33.769531 101.210938 L 36.28125 94.847656 L 38.816406 88.898438 L 41.390625 83.359375 L 44 78.242188 L 46.648438 73.546875 L 49.335938 69.296875 L 52.070312 65.496094 L 54.839844 62.164062 L 57.644531 59.316406 L 60.480469 56.964844 L 63.347656 55.121094 L 66.230469 53.800781 L 69.132812 53.007812 L 72.039062 52.746094 L 74.945312 53.023438 L 77.84375 53.828125 L 80.730469 55.164062 L 83.59375 57.019531 L 86.429688 59.382812 L 89.234375 62.246094 L 92.003906 65.589844 L 94.734375 69.402344 L 97.421875 73.664062 L 100.070312 78.371094 L 102.679688 83.5 L 105.25 89.050781 L 107.785156 95.011719 L 110.296875 101.382812 L 112.785156 108.175781 L 115.199219 115.199219 "/>
<path style="fill:none;stroke-width:0.75;stroke-linecap:round;stroke-linejoin:round;stroke:rgb(0%,0%,0%);stroke-opacity:1;stroke-miterlimit:10;" d="M 115.199219 57.601562 C 115.199219 73.503906 102.304688 86.398438 86.398438 86.398438 C 70.496094 86.398438 57.601562 73.503906 57.601562 57.601562 C 57.601562 41.695312 70.496094 28.800781 86.398438 28.800781 C 102.304688 28.800781 115.199219 41.695312 115.199219 57.601562 "/>
<path style="fill:none;stroke-width:3.75;stroke-linecap:round;stroke-linejoin:round;stroke:rgb(0%,0%,0%);stroke-opacity:1;stroke-miterlimit:10;" d="M 57.652344 59.308594 L 57.644531 59.316406 L 54.839844 62.164062 L 52.070312 65.496094 L 49.335938 69.296875 L 46.648438 73.546875 L 44 78.242188 L 41.390625 83.359375 L 38.816406 88.898438 L 36.28125 94.847656 L 33.769531 101.210938 L 31.277344 107.992188 L 28.800781 115.199219 "/>
<path style="fill:none;stroke-width:3.75;stroke-linecap:round;stroke-linejoin:round;stroke:rgb(0%,0%,0%);stroke-opacity:1;stroke-miterlimit:10;" d="M 115.199219 115.199219 L 112.785156 108.175781 L 110.296875 101.382812 L 107.785156 95.011719 L 105.25 89.050781 L 102.679688 83.5 L 101.863281 81.894531 "/>
</g>
</svg>
