<?xml version="1.0" encoding="UTF-8"?>
<svg xmlns="http://www.w3.org/2000/svg" xmlns:xlink="http://www.w3.org/1999/xlink" width="144pt" height="144pt" viewBox="0 0 144 144" version="1.1">
<g id="surface54">
<path style="fill:none;stroke-width:0.75;stroke-linecap:round;stroke-linejoin:round;stroke:rgb(0%,0%,0%);stroke-opacity:1;stroke-miterlimit:10;" d="M 28.800781 115.199219 L 31.277344 107.992188 L 33.769531 101.210938 L 36.28125 94.847656 L 38.816406 88.898438 L 41.390625 83.359375 L 44 78.242188 L 46.648438 73.546875 L 49.335938 69.296875 L 52.070312 65.496094 L 54.839844 62.164062 L 57.644531 59.316406 L 60.480469 56.964844 L 63.347656 55.121094 L 66.230469 53.800781 L 69.132812 53.007812 L 72.039062 52.746094 L 74.945312 53.023438 L 77.84375 53.828125 L 80.730469 55.164062 L 83.59375 57.019531 L 86.429688 59.382812 L 89.234375 62.246094 L 92.003906 65.589844 L 94.734375 69.402344 L 97.421875 73.664062 L 100.070312 78.371094 L 102.679688 83.5 L 105.25 89.050781 L 107.785156 95.011719 L 110.296875 101.382812 L 112.785156 108.175781 L 115.199219 115.199219 "/>
<path style="fill:none;stroke-width:0.75;stroke-linecap:round;stroke-linejoin:round;stroke:rgb(0%,0%,0%);stroke-opacity:1;stroke-miterlimit:10;" d="M 115.199219 57.601562 C 115.199219 73.503906 102.304688 86.398438 86.398438 86.398438 C 70.496094 86.398438 57.601562 73.503906 57.601562 57.601562 C 57.601562 41.695312 70.496094 28.800781 86.398438 28.800781 C 102.304688 28.800781 115.199219 41.695312 115.199219 57.601562 "/>
<path style="fill:none;stroke-width:3.75;stroke-linecap:round;stroke-linejoin:round;stroke:rgb(0%,0%,0%);stroke-opacity:1;stroke-miterlimit:10;" d="M 88.207031 86.34375 L 90.007812 86.171875 L 91.796875 85.890625 L 93.5625 85.496094 L 95.300781 84.992188 L 97.003906 84.378906 L 98.664062 83.660156 L 100.273438 82.835938 L 101.832031 81.917969 L 103.328125 80.898438 L 104.757812 79.789062 L 106.113281 78.59375 L 107.394531 77.316406 L 108.589844 75.957031 L 109.699219 74.527344 L 110.714844 73.03125 L 111.636719 71.472656 L 112.460938 69.863281 L 113.175781 68.203125 L 113.789062 66.5 L 114.296875 64.761719 L 114.691406 62.996094 L 114.972656 61.210938 L 115.144531 59.410156 L 115.199219 57.601562 L 115.144531 55.792969 L 114.972656 53.992188 L 114.691406 52.203125 L 114.296875 50.4375 L 113.789062 48.699219 L 113.175781 46.996094 L 112.460938 45.335938 L 111.636719 43.726562 L 110.714844 42.167969 L 109.699219 40.671875 L 108.589844 39.242188 L 107.394531 37.886719 L 106.113281 36.605469 L 104.757812 35.410156 L 103.328125 34.300781 L 101.832031 33.285156 L 100.273438 32.363281 L 98.664062 31.539062 L 97.003906 30.824219 L 95.300781 30.210938 L 93.5625 29.703125 L 91.796875 29.308594 L 90.007812 29.027344 L 88.207031 28.855469 L 86.398438 28.800781 L 84.589844 28.855469 L 82.789062 29.027344 L 81.003906 29.308594 L 79.238281 29.703125 L 77.5 30.210938 L 75.796875 30.824219 L 74.136719 31.539062 L 72.527344 32.363281 L 70.96875 33.285156 L 69.472656 34.300781 L 68.042969 35.410156 L 66.683594 36.605469 L 65.40625 37.886719 L 64.210938 39.242188 L 63.101562 40.671875 L 62.082031 42.167969 L 61.164062 43.726562 L 60.339844 45.335938 L 59.621094 46.996094 L 59.007812 48.699219 L 58.503906 50.4375 L 58.109375 52.203125 L 57.828125 53.992188 L 57.65625 55.792969 L 57.601562 57.601562 L 57.65625 59.410156 L 57.828125 61.210938 L 58.109375 62.996094 L 58.503906 64.761719 L 59.007812 66.5 L 59.621094 68.203125 L 60.339844 69.863281 L 61.164062 71.472656 L 62.082031 73.03125 L 63.101562 74.527344 L 64.210938 75.957031 L 65.40625 77.316406 L 66.683594 78.59375 L 68.042969 79.789062 L 69.472656 80.898438 L 70.96875 81.917969 L 72.527344 82.835938 L 74.136719 83.660156 L 75.796875 84.378906 L 77.5 84.992188 L 79.238281 85.496094 L 81.003906 85.890625 L 82.789062 86.171875 L 84.589844 86.34375 L 86.398438 86.398438 Z M 88.207031 86.34375 "/>
<path style="fill:none;stroke-width:3.75;stroke-linecap:round;stroke-linejoin:round;stroke:rgb(0%,0%,0%);stroke-opacity:1;stroke-miterlimit:10;" d="M 57.652344 59.308594 L 57.644531 59.316406 L 54.839844 62.164062 L 52.070312 65.496094 L 49.335938 69.296875 L 46.648438 73.546875 L 44 78.242188 L 41.390625 83.359375 L 38.816406 88.898438 L 36.28125 94.847656 L 33.769531 101.210938 L 31.277344 107.992188 L 28.800781 115.199219 "/>
<path style="fill:none;stroke-width:3.75;stroke-linecap:round;stroke-linejoin:round;stroke:rgb(0%,0%,0%);stroke-opacity:1;stroke-miterlimit:10;" d="M 115.199219 115.199219 L 112.785156 108.175781 L 110.296875 101.382812 L 107.785156 95.011719 L 105.25 89.050781 L 102.679688 83.5 L 101.863281 81.894531 "/>
</g>
</svg>
