<?xml version="1.0" encoding="UTF-8"?>
<svg xmlns="http://www.w3.org/2000/svg" xmlns:xlink="http://www.w3.org/1999/xlink" width="144pt" height="144pt" viewBox="0 0 144 144" version="1.1">
<g id="surface24">
<path style="fill:none;stroke-width:3.75;stroke-linecap:round;stroke-linejoin:round;stroke:rgb(0%,0%,0%);stroke-opacity:1;stroke-miterlimit:10;" d="M 28.800781 115.199219 L 86.402344 115.199219 L 86.402344 57.597656 L 28.800781 57.597656 Z M 28.800781 115.199219 "/>
<path style="fill:none;stroke-width:3.75;stroke-linecap:round;stroke-linejoin:round;stroke:rgb(0%,0%,0%);stroke-opacity:1;stroke-miterlimit:10;" d="M 115.199219 57.601562 C 115.199219 73.503906 102.304688 86.398438 86.398438 86.398438 C 70.496094 86.398438 57.601562 73.503906 57.601562 57.601562 C 57.601562 41.695312 70.496094 28.800781 86.398438 28.800781 C 102.304688 28.800781 115.199219 41.695312 115.199219 57.601562 "/>
<path style="fill-rule:nonzero;fill:rgb(74.509804%,74.509804%,74.509804%);fill-opacity:1;stroke-width:3.75;stroke-linecap:round;stroke-linejoin:round;stroke:rgb(0%,0%,0%);stroke-opacity:1;stroke-miterlimit:10;" d="M 28.800781 115.199219 L 86.398438 115.199219 L 86.398438 86.398438 L 88.207031 86.34375 L 90.007812 86.171875 L 91.796875 85.890625 L 93.5625 85.496094 L 95.300781 84.992188 L 97.003906 84.378906 L 98.664062 83.660156 L 100.273438 82.835938 L 101.832031 81.917969 L 103.328125 80.898438 L 104.757812 79.789062 L 106.113281 78.59375 L 107.394531 77.316406 L 108.589844 75.957031 L 109.699219 74.527344 L 110.714844 73.03125 L 111.636719 71.472656 L 112.460938 69.863281 L 113.175781 68.203125 L 113.789062 66.5 L 114.296875 64.761719 L 114.691406 62.996094 L 114.972656 61.210938 L 115.144531 59.410156 L 115.199219 57.601562 L 115.144531 55.792969 L 114.972656 53.992188 L 114.691406 52.203125 L 114.296875 50.4375 L 113.789062 48.699219 L 113.175781 46.996094 L 112.460938 45.335938 L 111.636719 43.726562 L 110.714844 42.167969 L 109.699219 40.671875 L 108.589844 39.242188 L 107.394531 37.886719 L 106.113281 36.605469 L 104.757812 35.410156 L 103.328125 34.300781 L 101.832031 33.285156 L 100.273438 32.363281 L 98.664062 31.539062 L 97.003906 30.824219 L 95.300781 30.210938 L 93.5625 29.703125 L 91.796875 29.308594 L 90.007812 29.027344 L 88.207031 28.855469 L 86.398438 28.800781 L 84.589844 28.855469 L 82.789062 29.027344 L 81.003906 29.308594 L 79.238281 29.703125 L 77.5 30.210938 L 75.796875 30.824219 L 74.136719 31.539062 L 72.527344 32.363281 L 70.96875 33.285156 L 69.472656 34.300781 L 68.042969 35.410156 L 66.683594 36.605469 L 65.40625 37.886719 L 64.210938 39.242188 L 63.101562 40.671875 L 62.082031 42.167969 L 61.164062 43.726562 L 60.339844 45.335938 L 59.621094 46.996094 L 59.007812 48.699219 L 58.503906 50.4375 L 58.109375 52.203125 L 57.828125 53.992188 L 57.65625 55.792969 L 57.601562 57.601562 L 28.800781 57.601562 Z M 28.800781 115.199219 "/>
</g>
</svg>
