<?xml version="1.0" encoding="UTF-8"?>
<svg xmlns="http://www.w3.org/2000/svg" xmlns:xlink="http://www.w3.org/1999/xlink" width="144pt" height="144pt" viewBox="0 0 144 144" version="1.1">
<g id="surface19">
<path style="fill:none;stroke-width:3.75;stroke-linecap:round;stroke-linejoin:round;stroke:rgb(0%,0%,0%);stroke-opacity:1;stroke-miterlimit:10;" d="M 28.800781 115.199219 L 86.402344 115.199219 L 86.402344 57.597656 L 28.800781 57.597656 Z M 28.800781 115.199219 "/>
<path style="fill:none;stroke-width:3.75;stroke-linecap:round;stroke-linejoin:round;stroke:rgb(0%,0%,0%);stroke-opacity:1;stroke-miterlimit:10;" d="M 115.199219 57.601562 C 115.199219 73.503906 102.304688 86.398438 86.398438 86.398438 C 70.496094 86.398438 57.601562 73.503906 57.601562 57.601562 C 57.601562 41.695312 70.496094 28.800781 86.398438 28.800781 C 102.304688 28.800781 115.199219 41.695312 115.199219 57.601562 "/>
<path style="fill-rule:nonzero;fill:rgb(74.509804%,74.509804%,74.509804%);fill-opacity:1;stroke-width:3.75;stroke-linecap:round;stroke-linejoin:round;stroke:rgb(0%,0%,0%);stroke-opacity:1;stroke-miterlimit:10;" d="M 86.398438 57.601562 L 57.601562 57.601562 L 57.65625 59.410156 L 57.828125 61.210938 L 58.109375 62.996094 L 58.503906 64.761719 L 59.007812 66.5 L 59.621094 68.203125 L 60.339844 69.863281 L 61.164062 71.472656 L 62.082031 73.03125 L 63.101562 74.527344 L 64.210938 75.957031 L 65.40625 77.316406 L 66.683594 78.59375 L 68.042969 79.789062 L 69.472656 80.898438 L 70.96875 81.917969 L 72.527344 82.835938 L 74.136719 83.660156 L 75.796875 84.378906 L 77.5 84.992188 L 79.238281 85.496094 L 81.003906 85.890625 L 82.789062 86.171875 L 84.589844 86.34375 L 86.398438 86.398438 Z M 86.398438 57.601562 "/>
</g>
</svg>
