<?xml version="1.0" encoding="UTF-8"?>
<svg xmlns="http://www.w3.org/2000/svg" xmlns:xlink="http://www.w3.org/1999/xlink" width="432pt" height="216pt" viewBox="0 0 432 216" version="1.1">
<g id="surface14">
<rect x="0" y="0" width="432" height="216" style="fill:rgb(100%,100%,100%);fill-opacity:1;stroke:none;"/>
<path style="fill:none;stroke-width:3.75;stroke-linecap:round;stroke-linejoin:round;stroke:rgb(0%,0%,0%);stroke-opacity:0.2;stroke-miterlimit:10;" d="M 129.601562 108 L 133.574219 113.601562 L 137.800781 118.855469 L 142.28125 123.773438 L 147.019531 128.359375 L 152.011719 132.613281 L 157.257812 136.527344 L 162.746094 140.097656 L 168.464844 143.308594 L 174.402344 146.148438 L 180.535156 148.609375 L 186.835938 150.675781 L 193.289062 152.335938 L 199.855469 153.582031 L 206.503906 154.40625 L 213.203125 154.800781 L 219.917969 154.765625 L 226.613281 154.300781 L 233.25 153.40625 L 239.800781 152.089844 L 246.226562 150.359375 L 252.503906 148.226562 L 258.605469 145.699219 L 264.507812 142.796875 L 270.1875 139.523438 L 275.636719 135.898438 L 280.839844 131.925781 L 285.792969 127.617188 L 290.484375 122.976562 L 294.921875 118 L 299.105469 112.6875 L 302.398438 108 "/>
<path style="fill:none;stroke-width:3.75;stroke-linecap:round;stroke-linejoin:round;stroke:rgb(0%,0%,0%);stroke-opacity:1;stroke-miterlimit:10;" d="M 86.398438 129.601562 L 172.796875 129.601562 L 172.796875 86.402344 L 86.398438 86.402344 Z M 86.398438 129.601562 "/>
<path style="fill:none;stroke-width:3.75;stroke-linecap:round;stroke-linejoin:round;stroke:rgb(0%,0%,0%);stroke-opacity:1;stroke-miterlimit:10;" d="M 324 108 C 324 119.929688 314.328125 129.601562 302.398438 129.601562 C 290.46875 129.601562 280.800781 119.929688 280.800781 108 C 280.800781 96.070312 290.46875 86.398438 302.398438 86.398438 C 314.328125 86.398438 324 96.070312 324 108 "/>
<path style="fill:none;stroke-width:3.75;stroke-linecap:round;stroke-linejoin:round;stroke:rgb(0%,0%,0%);stroke-opacity:1;stroke-miterlimit:10;" d="M 148.472656 129.601562 L 152.011719 132.613281 L 157.257812 136.527344 L 162.746094 140.097656 L 168.464844 143.308594 L 174.402344 146.148438 L 180.535156 148.609375 L 186.835938 150.675781 L 193.289062 152.335938 L 199.855469 153.582031 L 206.503906 154.40625 L 213.203125 154.800781 L 219.917969 154.765625 L 226.613281 154.300781 L 233.25 153.40625 L 239.800781 152.089844 L 246.226562 150.359375 L 252.503906 148.226562 L 258.605469 145.699219 L 264.507812 142.796875 L 270.1875 139.523438 L 275.636719 135.898438 L 280.839844 131.925781 L 285.792969 127.617188 L 288.726562 124.714844 "/>
</g>
</svg>
