<?xml version="1.0" encoding="UTF-8"?>
<svg xmlns="http://www.w3.org/2000/svg" xmlns:xlink="http://www.w3.org/1999/xlink" width="216pt" height="216pt" viewBox="0 0 216 216" version="1.1">
<g id="surface169">
<rect x="0" y="0" width="216" height="216" style="fill:rgb(100%,100%,100%);fill-opacity:1;stroke:none;"/>
<path style="fill:none;stroke-width:3.75;stroke-linecap:round;stroke-linejoin:round;stroke:rgb(0%,0%,0%);stroke-opacity:1;stroke-miterlimit:10;" d="M 43.199219 172.800781 L 49.433594 176.214844 L 55.273438 177.933594 L 60.773438 178.066406 L 65.980469 176.710938 L 70.929688 173.960938 L 75.652344 169.917969 L 80.1875 164.695312 L 84.554688 158.40625 L 88.785156 151.179688 L 92.898438 143.160156 L 96.925781 134.488281 L 100.890625 125.332031 L 104.8125 115.859375 L 108.710938 106.242188 L 112.617188 96.65625 L 116.550781 87.277344 L 120.535156 78.277344 L 124.59375 69.828125 L 128.746094 62.078125 L 133.023438 55.179688 L 137.449219 49.265625 L 142.046875 44.460938 L 146.851562 40.882812 L 151.890625 38.628906 L 157.199219 37.804688 L 162.816406 38.503906 L 168.796875 40.832031 L 172.800781 43.199219 "/>
<path style="fill:none;stroke-width:3.75;stroke-linecap:round;stroke-linejoin:round;stroke:rgb(0%,0%,0%);stroke-opacity:1;stroke-miterlimit:10;" d="M 144.9375 37.980469 L 172.800781 43.199219 L 154.8125 21.292969 L 144.9375 37.980469 "/>
</g>
</svg>
