<?xml version="1.0" encoding="UTF-8"?>
<svg xmlns="http://www.w3.org/2000/svg" xmlns:xlink="http://www.w3.org/1999/xlink" width="216pt" height="216pt" viewBox="0 0 216 216" version="1.1">
<g id="surface159">
<path style="fill:none;stroke-width:3.75;stroke-linecap:round;stroke-linejoin:round;stroke:rgb(0%,0%,0%);stroke-opacity:1;stroke-miterlimit:10;" d="M 43.199219 151.199219 L 172.800781 151.199219 L 172.800781 64.800781 L 43.199219 64.800781 Z M 43.199219 151.199219 "/>
<path style="fill:none;stroke-width:3.75;stroke-linecap:round;stroke-linejoin:round;stroke:rgb(0%,0%,0%);stroke-opacity:1;stroke-miterlimit:10;" d="M 57.375 108 C 57.375 115.828125 51.027344 122.171875 43.199219 122.171875 C 35.371094 122.171875 29.027344 115.828125 29.027344 108 C 29.027344 100.171875 35.371094 93.828125 43.199219 93.828125 C 51.027344 93.828125 57.375 100.171875 57.375 108 "/>
<path style="fill:none;stroke-width:3.75;stroke-linecap:round;stroke-linejoin:round;stroke:rgb(0%,0%,0%);stroke-opacity:1;stroke-miterlimit:10;" d="M 100.574219 108 C 100.574219 115.828125 94.226562 122.171875 86.398438 122.171875 C 78.574219 122.171875 72.226562 115.828125 72.226562 108 C 72.226562 100.171875 78.574219 93.828125 86.398438 93.828125 C 94.226562 93.828125 100.574219 100.171875 100.574219 108 "/>
<path style="fill:none;stroke-width:3.75;stroke-linecap:round;stroke-linejoin:round;stroke:rgb(0%,0%,0%);stroke-opacity:1;stroke-miterlimit:10;" d="M 143.773438 108 C 143.773438 115.828125 137.425781 122.171875 129.601562 122.171875 C 121.773438 122.171875 115.425781 115.828125 115.425781 108 C 115.425781 100.171875 121.773438 93.828125 129.601562 93.828125 C 137.425781 93.828125 143.773438 100.171875 143.773438 108 "/>
<path style="fill:none;stroke-width:3.75;stroke-linecap:round;stroke-linejoin:round;stroke:rgb(0%,0%,0%);stroke-opacity:1;stroke-miterlimit:10;" d="M 186.972656 108 C 186.972656 115.828125 180.628906 122.171875 172.800781 122.171875 C 164.972656 122.171875 158.625 115.828125 158.625 108 C 158.625 100.171875 164.972656 93.828125 172.800781 93.828125 C 180.628906 93.828125 186.972656 100.171875 186.972656 108 "/>
<path style="fill-rule:nonzero;fill:rgb(0%,0%,0%);fill-opacity:0.501961;stroke-width:3.75;stroke-linecap:round;stroke-linejoin:round;stroke:rgb(0%,0%,0%);stroke-opacity:1;stroke-miterlimit:10;" d="M 172.800781 122.171875 L 171.910156 122.144531 L 171.023438 122.0625 L 170.144531 121.921875 L 169.273438 121.726562 L 168.421875 121.480469 L 167.582031 121.179688 L 166.765625 120.824219 L 165.972656 120.421875 L 165.207031 119.96875 L 164.46875 119.464844 L 163.765625 118.921875 L 163.097656 118.332031 L 162.46875 117.703125 L 161.878906 117.035156 L 161.332031 116.332031 L 160.832031 115.59375 L 160.378906 114.828125 L 159.976562 114.035156 L 159.621094 113.21875 L 159.320312 112.378906 L 159.070312 111.523438 L 158.878906 110.65625 L 158.738281 109.777344 L 158.65625 108.890625 L 158.625 108 L 158.65625 107.109375 L 158.738281 106.222656 L 158.878906 105.34375 L 159.070312 104.476562 L 159.320312 103.621094 L 159.621094 102.78125 L 159.976562 101.964844 L 160.378906 101.171875 L 160.832031 100.40625 L 161.332031 99.667969 L 161.878906 98.964844 L 162.46875 98.296875 L 163.097656 97.667969 L 163.765625 97.078125 L 164.46875 96.535156 L 165.207031 96.03125 L 165.972656 95.578125 L 166.765625 95.175781 L 167.582031 94.820312 L 168.421875 94.519531 L 169.273438 94.273438 L 170.144531 94.078125 L 171.023438 93.9375 L 171.910156 93.855469 L 172.800781 93.828125 L 172.800781 64.800781 L 43.199219 64.800781 L 43.199219 93.828125 L 44.089844 93.855469 L 44.976562 93.9375 L 45.855469 94.078125 L 46.726562 94.273438 L 47.578125 94.519531 L 48.417969 94.820312 L 49.234375 95.175781 L 50.027344 95.578125 L 50.792969 96.03125 L 51.53125 96.535156 L 52.234375 97.078125 L 52.902344 97.667969 L 53.53125 98.296875 L 54.121094 98.964844 L 54.667969 99.667969 L 55.167969 100.40625 L 55.621094 101.171875 L 56.023438 101.964844 L 56.378906 102.78125 L 56.679688 103.621094 L 56.929688 104.476562 L 57.121094 105.34375 L 57.261719 106.222656 L 57.34375 107.109375 L 57.375 108 L 57.34375 108.890625 L 57.261719 109.777344 L 57.121094 110.65625 L 56.929688 111.523438 L 56.679688 112.378906 L 56.378906 113.21875 L 56.023438 114.035156 L 55.621094 114.828125 L 55.167969 115.59375 L 54.667969 116.332031 L 54.121094 117.035156 L 53.53125 117.703125 L 52.902344 118.332031 L 52.234375 118.921875 L 51.53125 119.464844 L 50.792969 119.96875 L 50.027344 120.421875 L 49.234375 120.824219 L 48.417969 121.179688 L 47.578125 121.480469 L 46.726562 121.726562 L 45.855469 121.921875 L 44.976562 122.0625 L 44.089844 122.144531 L 43.199219 122.171875 L 43.199219 151.199219 L 172.800781 151.199219 Z M 85.511719 122.144531 L 84.625 122.0625 L 83.746094 121.921875 L 82.875 121.726562 L 82.019531 121.480469 L 81.183594 121.179688 L 80.367188 120.824219 L 79.570312 120.421875 L 78.804688 119.96875 L 78.070312 119.464844 L 77.367188 118.921875 L 76.699219 118.332031 L 76.066406 117.703125 L 75.480469 117.035156 L 74.933594 116.332031 L 74.433594 115.59375 L 73.980469 114.828125 L 73.574219 114.035156 L 73.222656 113.21875 L 72.921875 112.378906 L 72.671875 111.523438 L 72.476562 110.65625 L 72.339844 109.777344 L 72.253906 108.890625 L 72.226562 108 L 72.253906 107.109375 L 72.339844 106.222656 L 72.476562 105.34375 L 72.671875 104.476562 L 72.921875 103.621094 L 73.222656 102.78125 L 73.574219 101.964844 L 73.980469 101.171875 L 74.433594 100.40625 L 74.933594 99.667969 L 75.480469 98.964844 L 76.066406 98.296875 L 76.699219 97.667969 L 77.367188 97.078125 L 78.070312 96.535156 L 78.804688 96.03125 L 79.570312 95.578125 L 80.367188 95.175781 L 81.183594 94.820312 L 82.019531 94.519531 L 82.875 94.273438 L 83.746094 94.078125 L 84.625 93.9375 L 85.511719 93.855469 L 86.398438 93.828125 L 87.289062 93.855469 L 88.175781 93.9375 L 89.054688 94.078125 L 89.925781 94.273438 L 90.78125 94.519531 L 91.617188 94.820312 L 92.433594 95.175781 L 93.226562 95.578125 L 93.996094 96.03125 L 94.730469 96.535156 L 95.433594 97.078125 L 96.101562 97.667969 L 96.730469 98.296875 L 97.320312 98.964844 L 97.867188 99.667969 L 98.367188 100.40625 L 98.820312 101.171875 L 99.222656 101.964844 L 99.578125 102.78125 L 99.878906 103.621094 L 100.128906 104.476562 L 100.320312 105.34375 L 100.460938 106.222656 L 100.546875 107.109375 L 100.574219 108 L 100.546875 108.890625 L 100.460938 109.777344 L 100.320312 110.65625 L 100.128906 111.523438 L 99.878906 112.378906 L 99.578125 113.21875 L 99.222656 114.035156 L 98.820312 114.828125 L 98.367188 115.59375 L 97.867188 116.332031 L 97.320312 117.035156 L 96.730469 117.703125 L 96.101562 118.332031 L 95.433594 118.921875 L 94.730469 119.464844 L 93.996094 119.96875 L 93.226562 120.421875 L 92.433594 120.824219 L 91.617188 121.179688 L 90.78125 121.480469 L 89.925781 121.726562 L 89.054688 121.921875 L 88.175781 122.0625 L 87.289062 122.144531 L 86.398438 122.171875 Z M 128.710938 122.144531 L 127.824219 122.0625 L 126.945312 121.921875 L 126.074219 121.726562 L 125.21875 121.480469 L 124.382812 121.179688 L 123.566406 120.824219 L 122.773438 120.421875 L 122.003906 119.96875 L 121.269531 119.464844 L 120.566406 118.921875 L 119.898438 118.332031 L 119.269531 117.703125 L 118.679688 117.035156 L 118.132812 116.332031 L 117.632812 115.59375 L 117.179688 114.828125 L 116.777344 114.035156 L 116.421875 113.21875 L 116.121094 112.378906 L 115.871094 111.523438 L 115.679688 110.65625 L 115.539062 109.777344 L 115.453125 108.890625 L 115.425781 108 L 115.453125 107.109375 L 115.539062 106.222656 L 115.679688 105.34375 L 115.871094 104.476562 L 116.121094 103.621094 L 116.421875 102.78125 L 116.777344 101.964844 L 117.179688 101.171875 L 117.632812 100.40625 L 118.132812 99.667969 L 118.679688 98.964844 L 119.269531 98.296875 L 119.898438 97.667969 L 120.566406 97.078125 L 121.269531 96.535156 L 122.003906 96.03125 L 122.773438 95.578125 L 123.566406 95.175781 L 124.382812 94.820312 L 125.21875 94.519531 L 126.074219 94.273438 L 126.945312 94.078125 L 127.824219 93.9375 L 128.710938 93.855469 L 129.601562 93.828125 L 130.488281 93.855469 L 131.375 93.9375 L 132.253906 94.078125 L 133.125 94.273438 L 133.980469 94.519531 L 134.816406 94.820312 L 135.632812 95.175781 L 136.429688 95.578125 L 137.195312 96.03125 L 137.929688 96.535156 L 138.632812 97.078125 L 139.300781 97.667969 L 139.933594 98.296875 L 140.519531 98.964844 L 141.066406 99.667969 L 141.566406 100.40625 L 142.019531 101.171875 L 142.425781 101.964844 L 142.777344 102.78125 L 143.078125 103.621094 L 143.328125 104.476562 L 143.523438 105.34375 L 143.660156 106.222656 L 143.746094 107.109375 L 143.773438 108 L 143.746094 108.890625 L 143.660156 109.777344 L 143.523438 110.65625 L 143.328125 111.523438 L 143.078125 112.378906 L 142.777344 113.21875 L 142.425781 114.035156 L 142.019531 114.828125 L 141.566406 115.59375 L 141.066406 116.332031 L 140.519531 117.035156 L 139.933594 117.703125 L 139.300781 118.332031 L 138.632812 118.921875 L 137.929688 119.464844 L 137.195312 119.96875 L 136.429688 120.421875 L 135.632812 120.824219 L 134.816406 121.179688 L 133.980469 121.480469 L 133.125 121.726562 L 132.253906 121.921875 L 131.375 122.0625 L 130.488281 122.144531 L 129.601562 122.171875 Z M 128.710938 122.144531 "/>
</g>
</svg>
