<?xml version="1.0" encoding="UTF-8"?>
<svg xmlns="http://www.w3.org/2000/svg" xmlns:xlink="http://www.w3.org/1999/xlink" width="216pt" height="216pt" viewBox="0 0 216 216" version="1.1">
<g id="surface184">
<rect x="0" y="0" width="216" height="216" style="fill:rgb(100%,100%,100%);fill-opacity:1;stroke:none;"/>
<path style="fill:none;stroke-width:3.75;stroke-linecap:round;stroke-linejoin:round;stroke:rgb(0%,0%,0%);stroke-opacity:1;stroke-miterlimit:10;" d="M 141.769531 44.753906 L 142.046875 44.460938 L 146.851562 40.882812 L 151.363281 38.863281 "/>
<path style="fill:none;stroke-width:3.75;stroke-linecap:round;stroke-linejoin:round;stroke:rgb(0%,0%,0%);stroke-opacity:1;stroke-miterlimit:10;" d="M 43.199219 172.800781 L 49.433594 176.214844 L 55.273438 177.933594 L 60.773438 178.066406 L 65.980469 176.710938 L 70.929688 173.960938 L 75.652344 169.917969 L 80.1875 164.695312 L 84.554688 158.40625 L 88.785156 151.179688 L 92.898438 143.160156 L 96.925781 134.488281 L 100.890625 125.332031 L 104.8125 115.859375 L 108.710938 106.242188 L 112.617188 96.65625 L 116.550781 87.277344 L 120.535156 78.277344 L 124.59375 69.828125 L 128.746094 62.078125 L 133.023438 55.179688 L 137.449219 49.265625 L 142.046875 44.460938 L 146.269531 41.3125 "/>
<path style="fill-rule:nonzero;fill:rgb(100%,0%,0%);fill-opacity:0.501961;stroke-width:0.75;stroke-linecap:round;stroke-linejoin:round;stroke:rgb(0%,0%,0%);stroke-opacity:1;stroke-miterlimit:10;" d="M 150.96875 48.320312 L 150.941406 48.21875 L 150.902344 48.105469 L 151.042969 47.878906 L 151.070312 47.847656 L 151.261719 47.640625 L 151.5 47.390625 L 151.792969 47.101562 L 152.128906 46.777344 L 152.496094 46.433594 L 152.871094 46.09375 L 153.230469 45.769531 L 153.5625 45.472656 L 153.828125 45.234375 L 154.105469 44.992188 L 154.40625 44.75 L 154.742188 44.503906 L 155.113281 44.25 L 155.507812 44.003906 L 155.914062 43.765625 L 156.3125 43.550781 L 156.695312 43.351562 L 157.066406 43.175781 L 157.308594 43.066406 L 157.679688 42.914062 L 158.082031 42.761719 L 158.527344 42.617188 L 159.011719 42.480469 L 159.527344 42.355469 L 160.058594 42.238281 L 160.585938 42.144531 L 161.101562 42.0625 L 161.605469 42 L 162.046875 41.953125 L 162.554688 41.917969 L 163.09375 41.898438 L 163.675781 41.890625 L 164.292969 41.898438 L 164.929688 41.921875 L 165.566406 41.953125 L 166.179688 42 L 166.761719 42.050781 L 167.308594 42.109375 L 167.820312 42.171875 L 167.835938 42.175781 L 168.382812 42.253906 L 168.941406 42.34375 L 169.5625 42.460938 L 170.277344 42.609375 L 171.066406 42.785156 L 171.84375 42.960938 L 172.445312 43.097656 L 172.75 43.171875 L 172.535156 42.941406 L 172.113281 42.492188 L 171.5625 41.910156 L 170.992188 41.320312 L 170.46875 40.789062 L 169.992188 40.320312 L 169.542969 39.902344 L 169.097656 39.5 L 169.082031 39.488281 L 168.65625 39.117188 L 168.195312 38.734375 L 167.691406 38.328125 L 167.152344 37.910156 L 166.585938 37.484375 L 166.003906 37.0625 L 165.417969 36.65625 L 164.839844 36.277344 L 164.269531 35.925781 L 163.707031 35.597656 L 163.191406 35.3125 L 162.585938 35 L 161.945312 34.695312 L 161.277344 34.394531 L 160.585938 34.109375 L 159.886719 33.839844 L 159.191406 33.601562 L 158.507812 33.386719 L 157.84375 33.207031 L 157.191406 33.046875 L 156.761719 32.957031 L 156.070312 32.824219 L 155.34375 32.710938 L 154.589844 32.613281 L 153.816406 32.535156 L 153.03125 32.476562 L 152.253906 32.445312 L 151.492188 32.441406 L 150.753906 32.460938 L 150.039062 32.5 L 149.375 32.550781 L 148.609375 32.625 L 147.84375 32.710938 L 147.089844 32.804688 L 146.363281 32.90625 L 145.6875 33.011719 L 145.085938 33.117188 L 144.5625 33.214844 L 144.117188 33.308594 L 144.054688 33.320312 L 143.351562 33.511719 L 142.644531 33.765625 L 142.027344 34.015625 L 141.625 34.191406 L 150.992188 48.386719 Z M 150.96875 48.320312 "/>
<path style="fill-rule:nonzero;fill:rgb(0%,0%,100%);fill-opacity:0.501961;stroke-width:0.75;stroke-linecap:round;stroke-linejoin:round;stroke:rgb(0%,0%,0%);stroke-opacity:1;stroke-miterlimit:10;" d="M 151.808594 55.269531 L 151.679688 54.550781 L 151.539062 53.703125 L 151.398438 52.746094 L 151.253906 51.710938 L 151.117188 50.65625 L 150.984375 49.621094 L 150.855469 48.636719 L 150.734375 47.707031 L 150.730469 47.679688 L 150.621094 46.796875 L 150.554688 45.863281 L 150.570312 44.792969 L 150.667969 43.53125 L 150.832031 42.105469 L 151.027344 40.675781 L 151.191406 39.53125 L 151.285156 38.898438 L 150.746094 38.5625 L 149.753906 37.953125 L 148.503906 37.203125 L 147.230469 36.46875 L 146.050781 35.839844 L 144.960938 35.339844 L 143.910156 34.945312 L 142.875 34.605469 L 142.839844 34.59375 L 141.765625 34.253906 L 140.648438 33.910156 L 139.496094 33.558594 L 138.328125 33.207031 L 137.191406 32.878906 L 136.128906 32.582031 L 135.179688 32.332031 L 134.367188 32.125 L 133.691406 31.957031 L 132.683594 31.789062 L 131.753906 31.839844 L 130.914062 31.992188 L 130.339844 32.15625 L 151.90625 55.835938 Z M 151.808594 55.269531 "/>
<path style="fill-rule:nonzero;fill:rgb(0%,0%,100%);fill-opacity:0.501961;stroke-width:0.75;stroke-linecap:round;stroke-linejoin:round;stroke:rgb(0%,0%,0%);stroke-opacity:1;stroke-miterlimit:10;" d="M 151.914062 55.871094 L 152.144531 56.636719 L 152.515625 57.03125 L 152.925781 57.242188 L 153.246094 57.304688 L 151.90625 55.835938 Z M 151.914062 55.871094 "/>
</g>
</svg>
