<?xml version="1.0" encoding="UTF-8"?>
<svg xmlns="http://www.w3.org/2000/svg" xmlns:xlink="http://www.w3.org/1999/xlink" width="144pt" height="144pt" viewBox="0 0 144 144" version="1.1">
<g id="surface139">
<rect x="0" y="0" width="144" height="144" style="fill:rgb(100%,100%,100%);fill-opacity:1;stroke:none;"/>
<path style="fill-rule:nonzero;fill:rgb(0%,0%,0%);fill-opacity:1;stroke-width:0.75;stroke-linecap:round;stroke-linejoin:round;stroke:rgb(0%,0%,0%);stroke-opacity:1;stroke-miterlimit:10;" d="M 72 72 L 57.601562 57.601562 L 86.398438 57.601562 L 72 72 L 102.53125 102.53125 L 103.492188 101.574219 L 105.285156 99.535156 L 106.949219 97.390625 L 108.476562 95.148438 L 109.855469 92.8125 L 111.089844 90.394531 L 112.167969 87.902344 L 113.085938 85.347656 L 113.84375 82.742188 L 114.433594 80.09375 L 114.859375 77.414062 L 115.113281 74.710938 L 115.199219 72 L 115.113281 69.289062 L 114.859375 66.585938 L 114.433594 63.90625 L 113.84375 61.257812 L 113.085938 58.652344 L 112.167969 56.097656 L 111.089844 53.605469 L 109.855469 51.1875 L 108.476562 48.851562 L 106.949219 46.609375 L 105.285156 44.464844 L 103.492188 42.425781 L 101.574219 40.507812 L 99.535156 38.714844 L 97.390625 37.050781 L 95.148438 35.523438 L 92.8125 34.144531 L 90.394531 32.910156 L 87.902344 31.832031 L 85.347656 30.914062 L 82.742188 30.15625 L 80.09375 29.566406 L 77.414062 29.140625 L 74.710938 28.886719 L 72 28.800781 L 69.289062 28.886719 L 66.585938 29.140625 L 63.90625 29.566406 L 61.257812 30.15625 L 58.652344 30.914062 L 56.097656 31.832031 L 53.605469 32.910156 L 51.1875 34.144531 L 48.851562 35.523438 L 46.609375 37.050781 L 44.464844 38.714844 L 42.425781 40.507812 L 40.507812 42.425781 L 38.714844 44.464844 L 37.050781 46.609375 L 35.523438 48.851562 L 34.144531 51.1875 L 32.910156 53.605469 L 31.832031 56.097656 L 30.914062 58.652344 L 30.15625 61.257812 L 29.566406 63.90625 L 29.140625 66.585938 L 28.886719 69.289062 L 28.800781 72 L 28.886719 74.710938 L 29.140625 77.414062 L 29.566406 80.09375 L 30.15625 82.742188 L 30.914062 85.347656 L 31.832031 87.902344 L 32.910156 90.394531 L 34.144531 92.8125 L 35.523438 95.148438 L 37.050781 97.390625 L 38.714844 99.535156 L 40.507812 101.574219 L 41.46875 102.53125 Z M 72 72 "/>
</g>
</svg>
