<?xml version="1.0" encoding="UTF-8"?>
<svg xmlns="http://www.w3.org/2000/svg" xmlns:xlink="http://www.w3.org/1999/xlink" width="216pt" height="216pt" viewBox="0 0 216 216" version="1.1">
<g id="surface94">
<rect x="0" y="0" width="216" height="216" style="fill:rgb(100%,100%,100%);fill-opacity:1;stroke:none;"/>
<path style="fill:none;stroke-width:2.25;stroke-linecap:butt;stroke-linejoin:round;stroke:rgb(0%,0%,0%);stroke-opacity:1;stroke-miterlimit:10;" d="M 36 180 L 36.03125 179.9375 L 36.234375 179.535156 L 36.753906 178.527344 L 37.6875 176.730469 L 39.097656 174.0625 L 41.007812 170.523438 L 43.394531 166.207031 L 46.210938 161.257812 L 49.402344 155.863281 L 52.902344 150.210938 L 56.664062 144.480469 L 60.660156 138.816406 L 64.882812 133.34375 L 69.351562 128.15625 L 74.109375 123.335938 L 79.203125 118.960938 L 84.703125 115.125 L 90.644531 111.949219 L 97.046875 109.585938 L 103.835938 108.234375 L 108 108 "/>
<path style="fill:none;stroke-width:7.5;stroke-linecap:butt;stroke-linejoin:round;stroke:rgb(0%,0%,0%);stroke-opacity:1;stroke-miterlimit:10;" d="M 108 108 L 114.933594 108.644531 L 121.582031 110.429688 L 127.800781 113.140625 L 133.5625 116.597656 L 138.890625 120.660156 L 143.84375 125.226562 L 148.476562 130.203125 L 152.84375 135.515625 L 156.976562 141.078125 L 160.878906 146.785156 L 164.539062 152.503906 L 167.921875 158.074219 L 170.96875 163.3125 L 173.621094 168.027344 L 175.820312 172.046875 L 177.527344 175.242188 L 178.742188 177.554688 L 179.5 179.019531 L 179.878906 179.757812 L 179.992188 179.988281 L 180 180 "/>
</g>
</svg>
