<?xml version="1.0" encoding="UTF-8"?>
<svg xmlns="http://www.w3.org/2000/svg" xmlns:xlink="http://www.w3.org/1999/xlink" width="144pt" height="144pt" viewBox="0 0 144 144" version="1.1">
<g id="surface154">
<path style="fill:none;stroke-width:7.5;stroke-linecap:round;stroke-linejoin:round;stroke:rgb(0%,0%,0%);stroke-opacity:1;stroke-miterlimit:10;" d="M 28.800781 115.199219 L 86.402344 115.199219 L 86.402344 57.597656 L 28.800781 57.597656 Z M 28.800781 115.199219 "/>
<path style="fill-rule:nonzero;fill:rgb(0%,0%,0%);fill-opacity:1;stroke-width:0.75;stroke-linecap:round;stroke-linejoin:round;stroke:rgb(0%,0%,0%);stroke-opacity:1;stroke-miterlimit:10;" d="M 111.449219 57.601562 L 111.402344 56.027344 L 111.253906 54.460938 L 111.007812 52.90625 L 110.664062 51.371094 L 110.222656 49.859375 L 109.691406 48.378906 L 109.066406 46.933594 L 108.351562 45.53125 L 107.550781 44.175781 L 106.664062 42.875 L 105.703125 41.632812 L 104.660156 40.453125 L 103.546875 39.339844 L 102.367188 38.296875 L 101.125 37.335938 L 99.824219 36.449219 L 98.46875 35.648438 L 97.066406 34.933594 L 95.621094 34.308594 L 94.140625 33.777344 L 92.628906 33.335938 L 91.09375 32.992188 L 89.539062 32.746094 L 87.972656 32.597656 L 86.398438 32.550781 L 84.828125 32.597656 L 83.261719 32.746094 L 81.707031 32.992188 L 80.171875 33.335938 L 78.660156 33.777344 L 77.179688 34.308594 L 75.734375 34.933594 L 74.332031 35.648438 L 72.976562 36.449219 L 71.675781 37.335938 L 70.433594 38.296875 L 69.253906 39.339844 L 68.140625 40.453125 L 67.097656 41.632812 L 66.132812 42.875 L 65.25 44.175781 L 64.449219 45.53125 L 63.734375 46.933594 L 63.109375 48.378906 L 62.574219 49.859375 L 62.136719 51.371094 L 61.792969 52.90625 L 61.546875 54.460938 L 61.398438 56.027344 L 61.351562 57.601562 L 61.398438 59.171875 L 61.546875 60.738281 L 61.792969 62.292969 L 62.136719 63.828125 L 62.574219 65.339844 L 63.109375 66.820312 L 63.734375 68.265625 L 64.449219 69.667969 L 65.25 71.023438 L 66.132812 72.324219 L 67.097656 73.566406 L 68.140625 74.746094 L 69.253906 75.859375 L 70.433594 76.902344 L 71.675781 77.867188 L 72.976562 78.75 L 74.332031 79.550781 L 75.734375 80.265625 L 77.179688 80.890625 L 78.660156 81.425781 L 80.171875 81.863281 L 81.707031 82.207031 L 83.261719 82.453125 L 84.828125 82.601562 L 86.398438 82.648438 L 87.972656 82.601562 L 89.539062 82.453125 L 91.09375 82.207031 L 92.628906 81.863281 L 94.140625 81.425781 L 95.621094 80.890625 L 97.066406 80.265625 L 98.46875 79.550781 L 99.824219 78.75 L 101.125 77.867188 L 102.367188 76.902344 L 103.546875 75.859375 L 104.660156 74.746094 L 105.703125 73.566406 L 106.664062 72.324219 L 107.550781 71.023438 L 108.351562 69.667969 L 109.066406 68.265625 L 109.691406 66.820312 L 110.222656 65.339844 L 110.664062 63.828125 L 111.007812 62.292969 L 111.253906 60.738281 L 111.402344 59.171875 Z M 118.886719 59.644531 L 118.691406 61.679688 L 118.375 63.699219 L 117.925781 65.695312 L 117.355469 67.660156 L 116.664062 69.582031 L 115.851562 71.460938 L 114.921875 73.28125 L 113.882812 75.042969 L 112.734375 76.730469 L 111.480469 78.347656 L 110.128906 79.882812 L 108.683594 81.328125 L 107.148438 82.679688 L 105.53125 83.933594 L 103.839844 85.082031 L 102.082031 86.125 L 100.257812 87.050781 L 98.382812 87.863281 L 96.457031 88.558594 L 94.496094 89.128906 L 92.5 89.574219 L 90.480469 89.894531 L 88.445312 90.085938 L 86.398438 90.148438 L 84.355469 90.085938 L 82.320312 89.894531 L 80.300781 89.574219 L 78.304688 89.128906 L 76.339844 88.558594 L 74.417969 87.863281 L 72.539062 87.050781 L 70.71875 86.125 L 68.957031 85.082031 L 67.269531 83.933594 L 65.652344 82.679688 L 64.117188 81.328125 L 62.671875 79.882812 L 61.320312 78.347656 L 60.066406 76.730469 L 58.917969 75.042969 L 57.875 73.28125 L 56.949219 71.460938 L 56.136719 69.582031 L 55.441406 67.660156 L 54.871094 65.695312 L 54.425781 63.699219 L 54.105469 61.679688 L 53.914062 59.644531 L 53.851562 57.601562 L 53.914062 55.554688 L 54.105469 53.519531 L 54.425781 51.5 L 54.871094 49.503906 L 55.441406 47.542969 L 56.136719 45.617188 L 56.949219 43.742188 L 57.875 41.917969 L 58.917969 40.160156 L 60.066406 38.46875 L 61.320312 36.851562 L 62.671875 35.316406 L 64.117188 33.871094 L 65.652344 32.519531 L 67.269531 31.265625 L 68.957031 30.117188 L 70.71875 29.078125 L 72.539062 28.148438 L 74.417969 27.335938 L 76.339844 26.644531 L 78.304688 26.074219 L 80.300781 25.625 L 82.320312 25.308594 L 84.355469 25.113281 L 86.398438 25.050781 L 88.445312 25.113281 L 90.480469 25.308594 L 92.5 25.625 L 94.496094 26.074219 L 96.457031 26.644531 L 98.382812 27.335938 L 100.257812 28.148438 L 102.082031 29.078125 L 103.839844 30.117188 L 105.53125 31.265625 L 107.148438 32.519531 L 108.683594 33.871094 L 110.128906 35.316406 L 111.480469 36.851562 L 112.734375 38.46875 L 113.882812 40.160156 L 114.921875 41.917969 L 115.851562 43.742188 L 116.664062 45.617188 L 117.355469 47.542969 L 117.925781 49.503906 L 118.375 51.5 L 118.691406 53.519531 L 118.886719 55.554688 L 118.949219 57.601562 Z M 118.886719 59.644531 "/>
<path style="fill:none;stroke-width:0.75;stroke-linecap:round;stroke-linejoin:round;stroke:rgb(0%,100%,0%);stroke-opacity:1;stroke-miterlimit:10;" d="M 86.398438 90.148438 L 84.355469 90.085938 L 82.320312 89.894531 L 80.300781 89.574219 L 78.304688 89.128906 L 76.339844 88.558594 L 74.417969 87.863281 L 72.539062 87.050781 L 70.71875 86.125 L 68.957031 85.082031 L 67.269531 83.933594 L 65.652344 82.679688 L 64.117188 81.328125 L 62.671875 79.882812 L 61.320312 78.347656 L 60.066406 76.730469 L 58.917969 75.042969 L 57.875 73.28125 L 56.949219 71.460938 L 56.136719 69.582031 L 55.441406 67.660156 L 54.871094 65.695312 L 54.425781 63.699219 L 54.105469 61.679688 L 53.914062 59.644531 L 53.851562 57.601562 L 28.800781 57.601562 L 28.800781 115.199219 L 86.398438 115.199219 L 86.398438 90.148438 "/>
</g>
</svg>
