<?xml version="1.0" encoding="UTF-8"?>
<svg xmlns="http://www.w3.org/2000/svg" xmlns:xlink="http://www.w3.org/1999/xlink" width="144pt" height="144pt" viewBox="0 0 144 144" version="1.1">
<g id="surface84">
<rect x="0" y="0" width="144" height="144" style="fill:rgb(100%,100%,100%);fill-opacity:1;stroke:none;"/>
<path style="fill:none;stroke-width:3.75;stroke-linecap:round;stroke-linejoin:round;stroke:rgb(74.509804%,74.509804%,74.509804%);stroke-opacity:1;stroke-miterlimit:10;" d="M 28.800781 115.199219 L 31.277344 107.992188 L 33.769531 101.210938 L 36.28125 94.847656 L 38.816406 88.898438 L 41.390625 83.359375 L 44 78.242188 L 46.648438 73.546875 L 49.335938 69.296875 L 52.070312 65.496094 L 54.839844 62.164062 L 57.644531 59.316406 L 60.480469 56.964844 L 63.347656 55.121094 L 66.230469 53.800781 L 69.132812 53.007812 L 72.039062 52.746094 L 74.945312 53.023438 L 77.84375 53.828125 L 80.730469 55.164062 L 83.59375 57.019531 L 86.429688 59.382812 L 89.234375 62.246094 L 92.003906 65.589844 L 94.734375 69.402344 L 97.421875 73.664062 L 100.070312 78.371094 L 102.679688 83.5 L 105.25 89.050781 L 107.785156 95.011719 L 110.296875 101.382812 L 112.785156 108.175781 L 115.199219 115.199219 "/>
<path style="fill:none;stroke-width:3.75;stroke-linecap:round;stroke-linejoin:round;stroke:rgb(0%,0%,0%);stroke-opacity:1;stroke-miterlimit:10;" d="M 34.164062 100.214844 L 36.28125 94.847656 L 38.816406 88.898438 L 40.367188 85.558594 "/>
<path style="fill:none;stroke-width:3.75;stroke-linecap:round;stroke-linejoin:round;stroke:rgb(0%,0%,0%);stroke-opacity:1;stroke-miterlimit:10;" d="M 47.90625 71.554688 L 49.335938 69.296875 L 52.070312 65.496094 L 54.839844 62.164062 L 57.644531 59.316406 L 57.824219 59.167969 "/>
<path style="fill:none;stroke-width:3.75;stroke-linecap:round;stroke-linejoin:round;stroke:rgb(0%,0%,0%);stroke-opacity:1;stroke-miterlimit:10;" d="M 72 52.75 L 72.039062 52.746094 L 74.945312 53.023438 L 77.84375 53.828125 L 80.730469 55.164062 L 83.59375 57.019531 L 86.171875 59.171875 "/>
<path style="fill:none;stroke-width:3.75;stroke-linecap:round;stroke-linejoin:round;stroke:rgb(0%,0%,0%);stroke-opacity:1;stroke-miterlimit:10;" d="M 96.09375 71.554688 L 97.421875 73.664062 L 100.070312 78.371094 L 102.679688 83.5 L 103.632812 85.558594 "/>
<path style="fill:none;stroke-width:3.75;stroke-linecap:round;stroke-linejoin:round;stroke:rgb(0%,0%,0%);stroke-opacity:1;stroke-miterlimit:10;" d="M 109.835938 100.214844 L 110.296875 101.382812 L 112.785156 108.175781 L 115.199219 115.199219 "/>
</g>
</svg>
