<?xml version="1.0" encoding="UTF-8"?>
<svg xmlns="http://www.w3.org/2000/svg" xmlns:xlink="http://www.w3.org/1999/xlink" width="288pt" height="288pt" viewBox="0 0 288 288" version="1.1">
<g id="surface99">
<rect x="0" y="0" width="288" height="288" style="fill:rgb(100%,100%,100%);fill-opacity:1;stroke:none;"/>
<path style="fill-rule:nonzero;fill:rgb(74.509804%,74.509804%,74.509804%);fill-opacity:1;stroke-width:3.75;stroke-linecap:round;stroke-linejoin:round;stroke:rgb(0%,0%,0%);stroke-opacity:1;stroke-miterlimit:10;" d="M 115.199219 78.050781 L 113.34375 78.851562 L 109.3125 80.90625 L 105.421875 83.207031 L 101.679688 85.75 L 98.105469 88.523438 L 94.710938 91.515625 L 91.515625 94.710938 L 88.523438 98.105469 L 85.75 101.679688 L 83.207031 105.421875 L 80.90625 109.3125 L 78.851562 113.34375 L 77.054688 117.496094 L 75.523438 121.75 L 74.261719 126.09375 L 73.273438 130.507812 L 72.566406 134.976562 L 72.140625 139.480469 L 72 144 L 72.140625 148.519531 L 72.566406 153.023438 L 73.273438 157.492188 L 74.261719 161.90625 L 75.523438 166.25 L 77.054688 170.503906 L 78.851562 174.65625 L 80.90625 178.6875 L 83.207031 182.578125 L 85.75 186.320312 L 88.523438 189.894531 L 91.515625 193.289062 L 94.710938 196.484375 L 98.105469 199.476562 L 101.679688 202.25 L 105.421875 204.792969 L 109.3125 207.09375 L 113.34375 209.148438 L 115.199219 209.949219 Z M 115.199219 78.050781 "/>
<path style="fill-rule:nonzero;fill:rgb(74.509804%,74.509804%,74.509804%);fill-opacity:1;stroke-width:3.75;stroke-linecap:round;stroke-linejoin:round;stroke:rgb(0%,0%,0%);stroke-opacity:1;stroke-miterlimit:10;" d="M 174.65625 209.148438 L 178.6875 207.09375 L 182.578125 204.792969 L 186.320312 202.25 L 189.894531 199.476562 L 193.289062 196.484375 L 196.484375 193.289062 L 199.476562 189.894531 L 202.25 186.320312 L 204.792969 182.578125 L 207.09375 178.6875 L 209.148438 174.65625 L 210.945312 170.503906 L 212.476562 166.25 L 213.738281 161.90625 L 214.726562 157.492188 L 215.433594 153.023438 L 215.859375 148.519531 L 216 144 L 215.859375 139.480469 L 215.433594 134.976562 L 214.726562 130.507812 L 213.738281 126.09375 L 212.476562 121.75 L 210.945312 117.496094 L 209.148438 113.34375 L 207.09375 109.3125 L 204.792969 105.421875 L 202.25 101.679688 L 199.476562 98.105469 L 196.484375 94.710938 L 193.289062 91.515625 L 189.894531 88.523438 L 186.320312 85.75 L 182.578125 83.207031 L 178.6875 80.90625 L 174.65625 78.851562 L 172.800781 78.050781 L 172.800781 209.949219 Z M 174.65625 209.148438 "/>
</g>
</svg>
