<?xml version="1.0" encoding="UTF-8"?>
<svg xmlns="http://www.w3.org/2000/svg" xmlns:xlink="http://www.w3.org/1999/xlink" width="288pt" height="288pt" viewBox="0 0 288 288" version="1.1">
<g id="surface89">
<rect x="0" y="0" width="288" height="288" style="fill:rgb(100%,100%,100%);fill-opacity:1;stroke:none;"/>
<path style="fill-rule:nonzero;fill:rgb(0%,0%,0%);fill-opacity:1;stroke-width:0.75;stroke-linecap:round;stroke-linejoin:round;stroke:rgb(0%,0%,0%);stroke-opacity:1;stroke-miterlimit:10;" d="M 216 144 L 215.496094 139.5 L 214.710938 135.066406 L 213.652344 130.714844 L 212.328125 126.457031 L 210.746094 122.3125 L 208.914062 118.296875 L 206.84375 114.425781 L 204.542969 110.714844 L 202.027344 107.175781 L 199.308594 103.816406 L 196.394531 100.65625 L 193.304688 97.699219 L 190.050781 94.960938 L 186.648438 92.445312 L 183.113281 90.164062 L 179.460938 88.121094 L 175.707031 86.324219 L 171.871094 84.773438 L 167.960938 83.480469 L 164 82.441406 L 160.007812 81.660156 L 155.992188 81.132812 L 151.976562 80.867188 L 147.972656 80.851562 L 144 81.089844 L 140.074219 81.578125 L 136.207031 82.308594 L 132.417969 83.277344 L 128.71875 84.476562 L 125.121094 85.898438 L 121.644531 87.539062 L 118.296875 89.382812 L 115.09375 91.421875 L 112.046875 93.648438 L 109.160156 96.046875 L 106.449219 98.609375 L 103.921875 101.320312 L 101.585938 104.171875 L 99.449219 107.144531 L 97.519531 110.230469 L 95.796875 113.410156 L 94.289062 116.671875 L 93 120 L 91.933594 123.386719 L 91.085938 126.808594 L 90.464844 130.253906 L 90.0625 133.710938 L 89.882812 137.164062 L 89.925781 140.597656 L 90.183594 144 L 90.652344 147.355469 L 91.328125 150.652344 L 92.207031 153.878906 L 93.28125 157.023438 L 94.546875 160.070312 L 95.988281 163.007812 L 97.605469 165.832031 L 99.386719 168.527344 L 101.324219 171.082031 L 103.402344 173.496094 L 105.613281 175.753906 L 107.949219 177.855469 L 110.394531 179.785156 L 112.941406 181.546875 L 115.574219 183.128906 L 118.28125 184.527344 L 121.050781 185.742188 L 123.871094 186.773438 L 126.730469 187.613281 L 129.617188 188.265625 L 132.515625 188.730469 L 135.414062 189.007812 L 138.304688 189.097656 L 141.167969 189 L 144 188.726562 L 146.785156 188.277344 L 149.515625 187.652344 L 152.175781 186.863281 L 154.761719 185.914062 L 157.257812 184.808594 L 159.660156 183.558594 L 161.960938 182.167969 L 164.144531 180.644531 L 166.210938 179 L 168.152344 177.242188 L 169.960938 175.382812 L 171.628906 173.421875 L 173.160156 171.382812 L 174.539062 169.265625 L 175.773438 167.082031 L 176.851562 164.847656 L 177.777344 162.570312 L 178.546875 160.257812 L 179.164062 157.921875 L 179.621094 155.574219 L 179.925781 153.222656 L 180.078125 150.882812 L 180.078125 148.558594 L 180.019531 145.132812 L 251.699219 151.910156 L 250.789062 157.492188 L 249.371094 164.101562 L 247.550781 170.585938 L 245.332031 176.925781 L 242.726562 183.089844 L 239.746094 189.054688 L 236.410156 194.804688 L 232.730469 200.308594 L 228.726562 205.558594 L 224.414062 210.523438 L 219.8125 215.191406 L 214.945312 219.546875 L 209.828125 223.574219 L 204.488281 227.253906 L 198.945312 230.582031 L 193.226562 233.542969 L 187.351562 236.128906 L 181.347656 238.328125 L 175.238281 240.144531 L 169.050781 241.5625 L 162.804688 242.585938 L 156.535156 243.210938 L 150.257812 243.441406 L 144 243.273438 L 137.789062 242.714844 L 131.648438 241.769531 L 125.601562 240.441406 L 119.671875 238.746094 L 113.886719 236.683594 L 108.257812 234.273438 L 102.816406 231.519531 L 97.578125 228.445312 L 92.5625 225.054688 L 87.785156 221.371094 L 83.269531 217.410156 L 79.03125 213.1875 L 75.078125 208.722656 L 71.433594 204.035156 L 68.097656 199.144531 L 65.09375 194.074219 L 62.421875 188.847656 L 60.097656 183.480469 L 58.121094 178 L 56.503906 172.429688 L 55.242188 166.789062 L 54.34375 161.101562 L 53.808594 155.394531 L 53.632812 149.683594 L 53.816406 144 L 54.359375 138.359375 L 55.25 132.789062 L 56.488281 127.304688 L 58.058594 121.933594 L 59.960938 116.695312 L 62.179688 111.605469 L 64.703125 106.6875 L 67.523438 101.957031 L 70.621094 97.433594 L 73.984375 93.128906 L 77.597656 89.066406 L 81.441406 85.253906 L 85.503906 81.707031 L 89.761719 78.4375 L 94.199219 75.453125 L 98.796875 72.769531 L 103.53125 70.390625 L 108.390625 68.324219 L 113.34375 66.574219 L 118.378906 65.148438 L 123.472656 64.046875 L 128.601562 63.273438 L 133.746094 62.828125 L 138.886719 62.707031 L 144 62.910156 L 149.070312 63.433594 L 154.070312 64.269531 L 158.992188 65.417969 L 163.804688 66.867188 L 168.496094 68.605469 L 173.046875 70.632812 L 177.441406 72.929688 L 181.664062 75.488281 L 185.695312 78.296875 L 189.527344 81.339844 L 193.140625 84.601562 L 196.523438 88.066406 L 199.667969 91.726562 L 202.558594 95.554688 L 205.191406 99.542969 L 207.554688 103.667969 L 209.644531 107.914062 L 211.449219 112.261719 L 212.972656 116.691406 L 214.207031 121.1875 L 215.148438 125.734375 L 215.796875 130.304688 L 216.152344 134.886719 L 216.222656 139.457031 Z M 216 144 "/>
</g>
</svg>
